<?xml version="1.0" encoding="UTF-8" standalone="no"?>
<svg
   xmlns:svg="http://www.w3.org/2000/svg"
   xmlns="http://www.w3.org/2000/svg"
   width="900.0"
   height="650.0"

>
    <g transform="scale(6.481659304782024, -6.481659304782024)   translate(55.15562962962963,-36.74062962962962)" stroke-width="0.3"  fill="none">
       <!-- hidden lines -->
       <g  stroke="rgb(160,160,160)" fill="none" stroke-dasharray="0.3,0.3" >

       </g>

       <!-- solid lines -->
       <g  stroke="rgb(0,0,0)" fill="none">
			<path d="M-43.542159392264296,29.844999999999995 L43.54215939226429,29.844999999999995 " />
			<path d="M-43.542159392264296,29.845 L-43.62833211116146,29.848660994272237 L-43.713883810707635,29.85961759346876 L-43.79819794704057,29.877790836867312 L-43.88066689502212,29.903049755688393 L-43.960696327199116,29.935212316945524 L-44.03770949693218,29.974046735299062 L-44.1111513948251,30.019273143459323 L-44.18049274850084,30.07056560910105 L-44.2452338368991,30.127554483753926 L-44.30490809160687,30.1898290667414 L-44.35908545926847,30.256940564969728 L-44.40737550084318,30.328405327236915 L-44.44943020537505,30.403708329752938 L-44.48494649799715,30.482306887752266 L-44.51366842409556,30.56363456645017 L-44.535388993892866,30.64710526315789 " />
			<path d="M43.542159392264296,29.845 L43.62833211116146,29.848660994272237 L43.713883810707635,29.85961759346876 L43.79819794704057,29.877790836867312 L43.88066689502212,29.903049755688393 L43.960696327199116,29.935212316945524 L44.03770949693218,29.974046735299062 L44.1111513948251,30.019273143459323 L44.18049274850084,30.07056560910105 L44.2452338368991,30.127554483753926 L44.30490809160687,30.1898290667414 L44.35908545926847,30.256940564969728 L44.40737550084318,30.328405327236915 L44.44943020537505,30.403708329752938 L44.48494649799715,30.482306887752266 L44.51366842409556,30.56363456645017 L44.535388993892866,30.64710526315789 " />
			<path d="M-44.535388993892866,30.64710526315789 L-44.57584225851373,30.816123954934064 L-44.623961184541564,30.983122020031068 L-44.67964565047775,31.147751984015805 L-44.74277979313417,31.309671299785276 L-44.81323224871079,31.46854306030753 L-44.89085642612557,31.624036699627254 L-44.975490812027886,31.775828680677485 L-45.066959306860866,31.923603168466155 L-45.16507159127339,32.067052687236945 L-45.269623522119325,32.20587876023695 L-45.3803975572201,32.33979253076002 L-45.49716320800672,32.468515363173665 L-45.61967751909951,32.59177942267876 L-45.74768557382761,32.70932823259592 L-45.880921024636514,32.82091720801897 L-46.01910664727986,32.92631416472496 L-46.16195491764256,33.02529980228213 L-46.309168609994884,33.117668160350306 L-46.4604414154328,33.203227047224544 L-46.615458579217794,33.28179843973015 L-46.773897555689985,33.35321885363724 L-46.93542867939188,33.41733968382382 L-47.0997158510064,33.47402751347991 L-47.26641723668181,33.52316439170912 L-47.43518597928867,33.564648078950206 L-47.60567092012865,33.598392259707836 L-47.77751732959375,33.62432672215007 L-47.95036764525549,33.642397504198804 L-48.12386221584838,33.652567005809125 L-48.29764004959971,33.65481406720408 L-48.47133956534843,33.64913401290205 L-48.64459934489052,33.63553866144506 L-48.817058884985194,33.6140563008078 L-48.98835934745733,33.58473162953861 L-49.158144305835464,33.54762566375475 L-49.32606048697161,33.50281561018565 L-49.49175850610008,33.4503947055281 L-49.65489359380557,33.39047202244781 L-49.81512631338808,33.32317224263088 L-49.972123267132105,33.24863539735748 L-50.12555779001031,33.16701657613742 L-50.275110629378524,33.07848560401398 L-50.42047060924768,32.98322668820736 L-50.56133527775063,32.88143803483298 L-50.69741153645655,32.7733314364922 L-50.828416250223576,32.659131831593434 L-50.95407683632075,32.53907683632073 L-51.074131831593455,32.413416250223555 L-51.18833143649222,32.28241153645652 L-51.296438034833,32.1463352777506 L-51.39822668820738,32.00547060924765 L-51.493485604014,31.860110629378493 L-51.58201657613744,31.710557790010284 L-51.6636353973575,31.557123267132077 L-51.7381722426309,31.40012631338805 L-51.80547202244782,31.239893593805537 L-51.86539470552811,31.076758506100056 L-51.917815610185656,30.911060486971586 L-51.96262566375476,30.743144305835433 L-51.999731629538616,30.573359347457306 L-52.02905630080781,30.402058884985166 L-52.05053866144507,30.22959934489049 L-52.06413401290206,30.056339565348395 L-52.069814067204085,29.882640049599672 L-52.067567005809124,29.70886221584835 L-52.05739750419881,29.535367645255455 L-52.03932672215007,29.362517329593718 L-52.01339225970783,29.190670920128618 L-51.979648078950206,29.020185979288637 L-51.93816439170912,28.85141723668178 L-51.8890275134799,28.68471585100637 L-51.83233968382381,28.520428679391856 L-51.76821885363723,28.358897555689953 L-51.696798439730145,28.200458579217763 L-51.61822704722453,28.04544141543277 L-51.5326681603503,27.894168609994853 L-51.44029980228211,27.746954917642533 L-51.34131416472494,27.604106647279835 L-51.23591720801895,27.465921024636486 L-51.12432823259591,27.332685573827586 L-51.00677942267874,27.204677519099484 L-50.88351536317365,27.082163208006694 L-50.75479253076,26.965397557220072 L-50.62087876023692,26.8546235221193 L-50.48205268723692,26.750071591273365 L-50.338603168466136,26.651959306860846 L-50.19082868067746,26.56049081202787 L-50.03903669962723,26.475856426125556 L-49.8835430603075,26.398232248710777 L-49.72467129978526,26.32777979313416 L-49.56275198401578,26.26464565047774 L-49.398122020031046,26.20896118454155 L-49.23112395493405,26.16084225851372 L-49.062105263157875,26.120388993892856 " />
			<path d="M49.06210526315789,26.12038899389286 L49.23112395493406,26.160842258513725 L49.39812202003107,26.208961184541558 L49.562751984015804,26.264645650477746 L49.72467129978528,26.327779793134166 L49.88354306030753,26.398232248710787 L50.03903669962725,26.475856426125567 L50.190828680677484,26.560490812027883 L50.33860316846616,26.65195930686086 L50.482052687236944,26.750071591273382 L50.62087876023695,26.85462352211932 L50.75479253076003,26.965397557220093 L50.88351536317367,27.082163208006715 L51.00677942267876,27.204677519099505 L51.12432823259593,27.332685573827607 L51.23591720801897,27.465921024636508 L51.34131416472496,27.604106647279856 L51.44029980228213,27.746954917642558 L51.53266816035031,27.89416860999488 L51.61822704722454,28.04544141543279 L51.69679843973015,28.200458579217788 L51.76821885363724,28.35889755568998 L51.83233968382382,28.520428679391877 L51.88902751347991,28.68471585100639 L51.93816439170913,28.851417236681804 L51.979648078950206,29.02018597928866 L52.013392259707835,29.19067092012864 L52.03932672215007,29.36251732959374 L52.05739750419881,29.535367645255473 L52.067567005809124,29.708862215848367 L52.069814067204085,29.88264004959969 L52.06413401290206,30.056339565348413 L52.05053866144507,30.22959934489051 L52.02905630080781,30.40205888498518 L51.999731629538616,30.57335934745732 L51.96262566375476,30.743144305835443 L51.917815610185656,30.911060486971596 L51.865394705528104,31.076758506100067 L51.805472022447816,31.239893593805547 L51.738172242630895,31.40012631338806 L51.663635397357496,31.557123267132088 L51.582016576137434,31.71055779001029 L51.49348560401399,31.860110629378504 L51.39822668820737,32.00547060924766 L51.296438034832995,32.146335277750616 L51.18833143649222,32.282411536456536 L51.07413183159345,32.41341625022356 L50.954076836320745,32.53907683632074 L50.82841625022357,32.65913183159344 L50.69741153645654,32.77333143649221 L50.56133527775062,32.88143803483299 L50.42047060924767,32.98322668820737 L50.27511062937852,33.078485604013984 L50.125557790010305,33.16701657613743 L49.9721232671321,33.24863539735749 L49.81512631338807,33.32317224263089 L49.654893593805554,33.39047202244781 L49.491758506100076,33.450394705528105 L49.326060486971606,33.50281561018565 L49.15814430583545,33.54762566375475 L48.988359347457326,33.58473162953861 L48.81705888498519,33.6140563008078 L48.644599344890516,33.63553866144507 L48.471339565348416,33.64913401290205 L48.29764004959969,33.65481406720408 L48.12386221584837,33.652567005809125 L47.950367645255476,33.642397504198804 L47.77751732959374,33.62432672215007 L47.60567092012864,33.59839225970783 L47.43518597928866,33.564648078950206 L47.266417236681804,33.52316439170912 L47.099715851006394,33.4740275134799 L46.935428679391876,33.41733968382381 L46.77389755568998,33.35321885363723 L46.61545857921779,33.281798439730146 L46.46044141543279,33.20322704722454 L46.30916860999487,33.117668160350306 L46.161954917642554,33.02529980228212 L46.01910664727985,32.92631416472495 L45.8809210246365,32.820917208018955 L45.7476855738276,32.709328232595915 L45.6196775190995,32.59177942267875 L45.49716320800671,32.46851536317366 L45.380397557220086,32.339792530760015 L45.26962352211932,32.205878760236935 L45.16507159127338,32.06705268723694 L45.06695930686086,31.923603168466148 L44.97549081202788,31.775828680677478 L44.890856426125566,31.624036699627247 L44.81323224871079,31.46854306030752 L44.74277979313417,31.309671299785272 L44.67964565047775,31.1477519840158 L44.623961184541564,30.983122020031065 L44.57584225851373,30.816123954934064 L44.535388993892866,30.64710526315789 " />
			<path d="M-48.26,25.127159392264293 L-48.263660994272236,25.213332111161463 L-48.274617593468754,25.298883810707636 L-48.29279083686731,25.38319794704057 L-48.31804975568839,25.46566689502211 L-48.35021231694552,25.54569632719911 L-48.38904673529906,25.622709496932178 L-48.43427314345932,25.696151394825094 L-48.48556560910105,25.765492748500833 L-48.542554483753925,25.83023383689909 L-48.6048290667414,25.889908091606863 L-48.67194056496973,25.944085459268468 L-48.743405327236914,25.992375500843174 L-48.81870832975294,26.03443020537505 L-48.897306887752265,26.069946497997144 L-48.97863456645017,26.098668424095557 L-49.06210526315789,26.12038899389286 " />
			<path d="M49.06210526315789,26.12038899389286 L48.97863456645017,26.098668424095553 L48.897306887752265,26.06994649799714 L48.81870832975294,26.03443020537505 L48.743405327236914,25.99237550084317 L48.67194056496973,25.944085459268468 L48.6048290667414,25.88990809160686 L48.542554483753925,25.83023383689909 L48.48556560910105,25.765492748500833 L48.43427314345932,25.696151394825094 L48.38904673529906,25.622709496932178 L48.35021231694552,25.545696327199106 L48.31804975568839,25.465666895022107 L48.29279083686731,25.383197947040568 L48.274617593468754,25.298883810707633 L48.263660994272236,25.21333211116146 L48.26,25.12715939226429 " />
			<path d="M-48.26,-25.12715939226429 L-48.26,25.127159392264293 " />
			<path d="M48.26,-25.12715939226429 L48.26,25.127159392264293 " />
			<path d="M-48.26,-25.12715939226429 L-48.263660994272236,-25.21333211116146 L-48.274617593468754,-25.298883810707633 L-48.29279083686731,-25.383197947040568 L-48.31804975568839,-25.465666895022107 L-48.35021231694552,-25.545696327199106 L-48.38904673529906,-25.622709496932178 L-48.43427314345932,-25.696151394825094 L-48.48556560910105,-25.765492748500833 L-48.542554483753925,-25.83023383689909 L-48.6048290667414,-25.88990809160686 L-48.67194056496973,-25.944085459268468 L-48.743405327236914,-25.99237550084317 L-48.81870832975294,-26.03443020537505 L-48.897306887752265,-26.06994649799714 L-48.97863456645017,-26.098668424095553 L-49.06210526315789,-26.12038899389286 " />
			<path d="M48.26,-25.12715939226429 L48.263660994272236,-25.21333211116146 L48.274617593468754,-25.298883810707633 L48.29279083686731,-25.383197947040568 L48.31804975568839,-25.465666895022107 L48.35021231694552,-25.545696327199106 L48.38904673529906,-25.622709496932178 L48.43427314345932,-25.696151394825094 L48.48556560910105,-25.765492748500833 L48.542554483753925,-25.83023383689909 L48.6048290667414,-25.88990809160686 L48.67194056496973,-25.944085459268468 L48.743405327236914,-25.99237550084317 L48.81870832975294,-26.03443020537505 L48.897306887752265,-26.06994649799714 L48.97863456645017,-26.098668424095553 L49.06210526315789,-26.12038899389286 " />
			<path d="M-49.06210526315789,-26.12038899389286 L-49.23112395493406,-26.160842258513725 L-49.39812202003107,-26.208961184541558 L-49.562751984015804,-26.264645650477746 L-49.72467129978528,-26.327779793134166 L-49.883543060307524,-26.398232248710787 L-50.03903669962725,-26.475856426125567 L-50.190828680677484,-26.560490812027883 L-50.33860316846616,-26.65195930686086 L-50.48205268723695,-26.750071591273382 L-50.62087876023695,-26.85462352211932 L-50.75479253076003,-26.965397557220093 L-50.88351536317367,-27.08216320800672 L-51.00677942267876,-27.204677519099505 L-51.12432823259593,-27.33268557382761 L-51.23591720801897,-27.46592102463651 L-51.34131416472496,-27.60410664727986 L-51.440299802282134,-27.74695491764256 L-51.53266816035031,-27.894168609994882 L-51.61822704722454,-28.045441415432798 L-51.69679843973016,-28.200458579217795 L-51.768218853637244,-28.358897555689985 L-51.83233968382382,-28.520428679391888 L-51.88902751347991,-28.684715851006402 L-51.93816439170913,-28.85141723668181 L-51.97964807895021,-29.02018597928867 L-52.013392259707835,-29.19067092012865 L-52.03932672215008,-29.36251732959375 L-52.05739750419881,-29.535367645255487 L-52.067567005809124,-29.70886221584838 L-52.069814067204085,-29.882640049599704 L-52.06413401290206,-30.056339565348427 L-52.05053866144507,-30.229599344890527 L-52.02905630080781,-30.4020588849852 L-51.99973162953861,-30.573359347457338 L-51.96262566375475,-30.743144305835465 L-51.91781561018565,-30.911060486971614 L-51.8653947055281,-31.076758506100088 L-51.80547202244781,-31.239893593805565 L-51.73817224263089,-31.40012631338808 L-51.66363539735749,-31.557123267132106 L-51.58201657613742,-31.710557790010313 L-51.49348560401398,-31.86011062937852 L-51.39822668820736,-32.00547060924768 L-51.29643803483298,-32.14633527775063 L-51.188331436492206,-32.28241153645655 L-51.074131831593434,-32.41341625022358 L-50.95407683632073,-32.53907683632075 L-50.828416250223555,-32.659131831593456 L-50.69741153645653,-32.77333143649222 L-50.56133527775061,-32.881438034833 L-50.42047060924766,-32.983226688207374 L-50.2751106293785,-33.07848560401399 L-50.12555779001029,-33.167016576137435 L-49.97212326713208,-33.248635397357496 L-49.81512631338806,-33.323172242630896 L-49.65489359380555,-33.39047202244782 L-49.49175850610007,-33.450394705528105 L-49.3260604869716,-33.50281561018565 L-49.15814430583545,-33.54762566375475 L-48.988359347457326,-33.58473162953861 L-48.81705888498519,-33.6140563008078 L-48.644599344890516,-33.63553866144507 L-48.47133956534842,-33.64913401290205 L-48.2976400495997,-33.65481406720408 L-48.123862215848376,-33.652567005809125 L-47.95036764525548,-33.642397504198804 L-47.77751732959375,-33.62432672215007 L-47.60567092012865,-33.598392259707836 L-47.43518597928867,-33.564648078950206 L-47.26641723668182,-33.52316439170912 L-47.09971585100641,-33.47402751347991 L-46.93542867939189,-33.41733968382382 L-46.77389755568999,-33.35321885363724 L-46.6154585792178,-33.28179843973016 L-46.46044141543281,-33.203227047224544 L-46.30916860999489,-33.11766816035032 L-46.161954917642575,-33.025299802282134 L-46.01910664727988,-32.92631416472497 L-45.88092102463653,-32.820917208018976 L-45.747685573827624,-32.70932823259594 L-45.619677519099525,-32.591779422678776 L-45.49716320800673,-32.46851536317369 L-45.380397557220114,-32.33979253076004 L-45.26962352211934,-32.20587876023696 L-45.1650715912734,-32.067052687236966 L-45.06695930686088,-31.92360316846618 L-44.9754908120279,-31.77582868067751 L-44.89085642612559,-31.624036699627283 L-44.813232248710804,-31.468543060307553 L-44.74277979313418,-31.309671299785307 L-44.67964565047776,-31.147751984015837 L-44.62396118454157,-30.9831220200311 L-44.57584225851374,-30.8161239549341 L-44.53538899389287,-30.647105263157925 " />
			<path d="M44.535388993892866,-30.64710526315789 L44.57584225851373,-30.816123954934064 L44.623961184541564,-30.983122020031065 L44.67964565047775,-31.147751984015805 L44.74277979313417,-31.309671299785276 L44.81323224871079,-31.468543060307525 L44.89085642612557,-31.624036699627254 L44.975490812027886,-31.775828680677485 L45.066959306860866,-31.923603168466155 L45.16507159127339,-32.067052687236945 L45.269623522119325,-32.20587876023695 L45.3803975572201,-32.33979253076002 L45.49716320800672,-32.468515363173665 L45.61967751909951,-32.591779422678755 L45.74768557382761,-32.70932823259592 L45.880921024636514,-32.82091720801897 L46.01910664727986,-32.92631416472496 L46.16195491764256,-33.02529980228213 L46.309168609994884,-33.117668160350306 L46.4604414154328,-33.20322704722454 L46.615458579217794,-33.28179843973015 L46.773897555689985,-33.35321885363724 L46.93542867939188,-33.41733968382381 L47.099715851006394,-33.47402751347991 L47.266417236681804,-33.52316439170912 L47.43518597928866,-33.564648078950206 L47.605670920128645,-33.598392259707836 L47.77751732959374,-33.62432672215007 L47.950367645255476,-33.642397504198804 L48.12386221584837,-33.652567005809125 L48.29764004959969,-33.65481406720408 L48.471339565348416,-33.64913401290205 L48.644599344890516,-33.63553866144507 L48.81705888498519,-33.6140563008078 L48.98835934745732,-33.58473162953861 L49.15814430583545,-33.54762566375475 L49.3260604869716,-33.50281561018565 L49.49175850610007,-33.450394705528105 L49.65489359380555,-33.39047202244782 L49.81512631338806,-33.32317224263089 L49.97212326713209,-33.24863539735749 L50.1255577900103,-33.16701657613743 L50.27511062937851,-33.07848560401399 L50.420470609247666,-32.98322668820737 L50.561335277750615,-32.881438034832996 L50.697411536456535,-32.773331436492214 L50.82841625022356,-32.65913183159345 L50.954076836320745,-32.539076836320746 L51.07413183159345,-32.41341625022356 L51.18833143649221,-32.282411536456536 L51.29643803483299,-32.146335277750616 L51.398226688207366,-32.005470609247666 L51.49348560401399,-31.86011062937851 L51.58201657613743,-31.7105577900103 L51.663635397357496,-31.557123267132095 L51.738172242630895,-31.400126313388068 L51.805472022447816,-31.23989359380555 L51.865394705528104,-31.076758506100074 L51.917815610185656,-30.9110604869716 L51.96262566375476,-30.74314430583545 L51.99973162953861,-30.573359347457323 L52.02905630080781,-30.402058884985184 L52.05053866144507,-30.22959934489051 L52.06413401290206,-30.056339565348413 L52.069814067204085,-29.88264004959969 L52.067567005809124,-29.708862215848367 L52.05739750419881,-29.535367645255473 L52.03932672215007,-29.362517329593736 L52.013392259707835,-29.190670920128635 L51.979648078950206,-29.020185979288655 L51.93816439170912,-28.851417236681797 L51.88902751347991,-28.684715851006388 L51.83233968382382,-28.520428679391873 L51.76821885363724,-28.35889755568997 L51.69679843973015,-28.20045857921778 L51.618227047224536,-28.045441415432784 L51.532668160350305,-27.894168609994868 L51.44029980228213,-27.746954917642547 L51.341314164724956,-27.60410664727985 L51.23591720801896,-27.4659210246365 L51.124328232595914,-27.3326855738276 L51.006779422678754,-27.204677519099494 L50.883515363173665,-27.08216320800671 L50.754792530760014,-26.965397557220086 L50.62087876023694,-26.85462352211931 L50.48205268723694,-26.750071591273375 L50.33860316846615,-26.651959306860856 L50.19082868067748,-26.56049081202788 L50.03903669962725,-26.475856426125564 L49.883543060307524,-26.398232248710787 L49.72467129978527,-26.327779793134166 L49.562751984015804,-26.264645650477746 L49.39812202003107,-26.208961184541558 L49.23112395493406,-26.160842258513725 L49.06210526315789,-26.12038899389286 " />
			<path d="M-43.542159392264296,-29.845 L-43.62833211116146,-29.848660994272237 L-43.713883810707635,-29.85961759346876 L-43.79819794704057,-29.877790836867312 L-43.88066689502212,-29.903049755688393 L-43.960696327199116,-29.935212316945524 L-44.03770949693218,-29.974046735299062 L-44.1111513948251,-30.019273143459323 L-44.18049274850084,-30.07056560910105 L-44.2452338368991,-30.127554483753926 L-44.30490809160687,-30.1898290667414 L-44.35908545926847,-30.256940564969728 L-44.40737550084318,-30.328405327236915 L-44.44943020537505,-30.403708329752938 L-44.48494649799715,-30.482306887752266 L-44.51366842409556,-30.56363456645017 L-44.535388993892866,-30.64710526315789 " />
			<path d="M44.535388993892866,-30.64710526315789 L44.51366842409556,-30.56363456645017 L44.48494649799715,-30.482306887752266 L44.44943020537505,-30.403708329752938 L44.40737550084317,-30.32840532723691 L44.35908545926847,-30.256940564969728 L44.30490809160686,-30.1898290667414 L44.2452338368991,-30.127554483753922 L44.18049274850084,-30.07056560910105 L44.11115139482509,-30.01927314345932 L44.03770949693218,-29.974046735299062 L43.96069632719911,-29.935212316945524 L43.88066689502211,-29.90304975568839 L43.79819794704057,-29.877790836867312 L43.713883810707635,-29.859617593468755 L43.628332111161455,-29.848660994272237 L43.54215939226429,-29.845 " />
			<path d="M-43.542159392264296,-29.844999999999995 L43.54215939226429,-29.844999999999995 " />
			<path d="M-45.211999999999996,-29.844999999999995 L-45.21597594199203,-29.689367309768564 L-45.22789339518942,-29.53414064745604 L-45.2477212683175,-29.379724981700868 L-45.27540783271919,-29.226523165344048 L-45.31088085730918,-29.074934884432114 L-45.35404779701657,-28.92535561548185 L-45.4047960342244,-28.778175593727212 L-45.46299317257614,-28.633778795040172 L-45.5284873823827,-28.492541934181503 L-45.60110779672872,-28.354833481994973 L-45.68066495724486,-28.221012704109 L-45.76695130838304,-28.09142872365364 L-45.85974173890519,-27.966419610438198 L-45.958794169172755,-27.846311498965708 L-46.0638501827048,-27.731417737585243 L-46.174635700357165,-27.62203807100185 L-46.29086169536362,-27.518457858276843 L-46.41222494737369,-27.420947328358594 L-46.538408833519945,-27.329760875086052 L-46.66908415445093,-27.245136393504286 L-46.80390999317462,-27.167294659223444 L-46.94253460447201,-27.096438752440417 L-47.08459633256016,-27.03275352812578 L-47.22972455461088,-26.97640513375829 L-47.37754064766336,-26.927540575865088 L-47.52765897640823,-26.886287336498423 L-47.679687899266085,-26.85275304064958 L-47.833230790135616,-26.827025175467536 L-47.98788707314583,-26.809170862014977 L-48.143253267712765,-26.799236680157126 L-48.29892404117428,-26.79724854704018 L-48.45449326625666,-26.803211649476438 L-48.60955508061432,-26.817110430412505 L-48.76370494567831,-26.838908629515856 L-48.916540702051286,-26.868549377773917 L-49.06766361869542,-26.90595534585882 L-49.21667943317616,-26.951028945870785 L-49.36319938024793,-27.003652585933814 L-49.50684120609824,-27.063688976979467 L-49.64723016560424,-27.130981490918376 L-49.78399999999999,-27.205354569265022 L-49.91679389240372,-27.286614181149808 L-50.04526539871233,-27.37454832952342 L-50.16907935143456,-27.46892760423294 L-50.28791273410464,-27.56950578052673 L-50.40145552399539,-27.6760204614267 L-50.50941150093213,-27.788193762292064 L-50.61149902009728,-27.90573303578864 L-50.70745174680953,-28.028331635372325 L-50.797019351360625,-28.15566971529493 L-50.879968162096986,-28.287415065045202 L-50.956081775042364,-28.42322397604812 L-51.025161618471124,-28.56274213836133 L-51.087027470959185,-28.70560556502933 L-51.141517931561154,-28.851441541683865 L-51.18849084088696,-28.999869598913175 L-51.22782365197947,-29.15050250486323 L-51.259413750025494,-29.302947275481444 L-51.28317872006615,-29.456806199767183 L-51.29905656200804,-29.611677877354357 L-51.307005852374445,-29.767158265719154 L-51.307005852374445,-29.92284173428084 L-51.29905656200804,-30.078322122645634 L-51.28317872006615,-30.23319380023281 L-51.259413750025494,-30.387052724518547 L-51.22782365197947,-30.53949749513676 L-51.188490840886956,-30.69013040108682 L-51.141517931561154,-30.838558458316125 L-51.08702747095918,-30.98439443497066 L-51.02516161847112,-31.12725786163866 L-50.956081775042364,-31.266776023951873 L-50.879968162096986,-31.402584934954792 L-50.797019351360625,-31.53433028470506 L-50.707451746809525,-31.661668364627666 L-50.61149902009728,-31.784266964211355 L-50.509411500932124,-31.90180623770793 L-50.40145552399539,-32.013979538573295 L-50.28791273410464,-32.12049421947326 L-50.16907935143456,-32.22107239576705 L-50.04526539871233,-32.31545167047657 L-49.91679389240372,-32.40338581885018 L-49.78399999999999,-32.484645430734965 L-49.64723016560424,-32.55901850908162 L-49.50684120609824,-32.62631102302052 L-49.36319938024793,-32.68634741406618 L-49.216679433176154,-32.73897105412921 L-49.06766361869541,-32.78404465414117 L-48.916540702051286,-32.821450622226074 L-48.763704945678306,-32.851091370484134 L-48.609555080614314,-32.872889569587485 L-48.454493266256655,-32.88678835052355 L-48.298924041174274,-32.89275145295981 L-48.14325326771276,-32.89076331984286 L-47.98788707314582,-32.88082913798501 L-47.83323079013561,-32.86297482453245 L-47.67968789926608,-32.83724695935041 L-47.52765897640822,-32.803712663501564 L-47.377540647663345,-32.7624594241349 L-47.22972455461087,-32.71359486624169 L-47.084596332560146,-32.65724647187421 L-46.942534604471994,-32.59356124755957 L-46.80390999317461,-32.52270534077654 L-46.669084154450914,-32.444863606495694 L-46.53840883351994,-32.36023912491393 L-46.41222494737367,-32.26905267164139 L-46.2908616953636,-32.17154214172314 L-46.17463570035716,-32.06796192899813 L-46.06385018270479,-31.958582262414737 L-45.95879416917274,-31.84368850103427 L-45.859741738905186,-31.72358038956178 L-45.766951308383035,-31.598571276346338 L-45.68066495724485,-31.468987295890976 L-45.60110779672871,-31.335166518005003 L-45.52848738238269,-31.197458065818473 L-45.462993172576134,-31.0562212049598 L-45.40479603422439,-30.91182440627276 L-45.35404779701656,-30.764644384518125 L-45.31088085730917,-30.61506511556786 L-45.27540783271918,-30.463476834655925 L-45.24772126831749,-30.310275018299105 L-45.22789339518941,-30.155859352543928 L-45.21597594199203,-30.00063269023141 L-45.211999999999996,-29.844999999999974 " />
			<path d="M-28.701999999999998,-6.3119 L-28.70597048980803,-6.193142697201173 L-28.717864226060797,-6.074915793345421 L-28.737628088444946,-5.957747318485379 L-28.765173806753314,-5.842160575472853 L-28.80037835512112,-5.728671802761245 L-28.843084501489308,-5.617787868759306 L-28.893101509841127,-5.51000400803377 L-28.950205992075468,-5.40580160947157 L-29.014142905712347,-5.305646066280201 L-29.08462669297454,-5.209984697428684 L-29.16134255615793,-5.11924474981246 L-29.24394786359448,-5.033831490065041 L-29.332073679928445,-4.954126394538843 L-29.425326413871204,-4.880485445539192 L-29.52328957607552,-4.813237541420934 L-29.625525639278074,-4.752683027648537 L-29.731577992402418,-4.699092355380341 L-29.8409729798949,-4.65270487356803 L-29.95322201718534,-4.613727759966109 L-30.067823772824333,-4.582335095825764 L-30.184266407551192,-4.558667088405729 L-30.30202986029235,-4.542829444772639 L-30.420588170880354,-4.534892899687607 L-30.539411829119643,-4.534892899687607 L-30.657970139707643,-4.542829444772639 L-30.775733592448802,-4.558667088405729 L-30.892176227175664,-4.582335095825764 L-31.006777982814654,-4.6137277599661095 L-31.119027020105097,-4.65270487356803 L-31.228422007597576,-4.699092355380342 L-31.33447436072192,-4.752683027648538 L-31.436710423924474,-4.813237541420935 L-31.53467358612879,-4.880485445539193 L-31.62792632007155,-4.954126394538844 L-31.716052136405512,-5.033831490065042 L-31.798657443842067,-5.119244749812461 L-31.875373307025455,-5.209984697428685 L-31.945857094287646,-5.305646066280202 L-32.009794007924526,-5.405801609471571 L-32.06689849015886,-5.510004008033771 L-32.116915498510686,-5.617787868759307 L-32.159621644878875,-5.728671802761247 L-32.194826193246676,-5.842160575472854 L-32.22237191155505,-5.957747318485381 L-32.2421357739392,-6.074915793345422 L-32.25402951019196,-6.193142697201175 L-32.257999999999996,-6.311900000000001 L-32.25402951019196,-6.430657302798827 L-32.2421357739392,-6.54888420665458 L-32.22237191155505,-6.666052681514621 L-32.194826193246676,-6.781639424527148 L-32.159621644878875,-6.895128197238755 L-32.116915498510686,-7.006012131240695 L-32.06689849015886,-7.113795991966231 L-32.009794007924526,-7.217998390528431 L-31.945857094287646,-7.318153933719799 L-31.875373307025455,-7.413815302571317 L-31.798657443842064,-7.50455525018754 L-31.71605213640551,-7.589968509934959 L-31.627926320071545,-7.669673605461156 L-31.53467358612879,-7.743314554460807 L-31.436710423924474,-7.8105624585790645 L-31.33447436072192,-7.871116972351461 L-31.22842200759758,-7.924707644619657 L-31.119027020105097,-7.971095126431968 L-31.006777982814658,-8.010072240033889 L-30.892176227175668,-8.041464904174235 L-30.775733592448805,-8.065132911594269 L-30.65797013970765,-8.08097055522736 L-30.539411829119647,-8.088907100312392 L-30.420588170880357,-8.088907100312392 L-30.302029860292357,-8.08097055522736 L-30.1842664075512,-8.065132911594272 L-30.06782377282434,-8.041464904174237 L-29.95322201718535,-8.010072240033892 L-29.840972979894907,-7.9710951264319725 L-29.73157799240243,-7.924707644619662 L-29.625525639278084,-7.871116972351468 L-29.52328957607553,-7.810562458579072 L-29.425326413871215,-7.743314554460815 L-29.332073679928456,-7.669673605461165 L-29.243947863594492,-7.589968509934969 L-29.16134255615794,-7.5045552501875505 L-29.08462669297455,-7.4138153025713285 L-29.014142905712358,-7.318153933719812 L-28.950205992075478,-7.217998390528445 L-28.893101509841138,-7.113795991966246 L-28.843084501489315,-7.006012131240712 L-28.800378355121126,-6.895128197238773 L-28.76517380675332,-6.7816394245271665 L-28.73762808844495,-6.666052681514642 L-28.7178642260608,-6.548884206654601 L-28.70597048980803,-6.430657302798849 L-28.701999999999998,-6.311900000000024 " />
			<path d="M26.67,-26.67 L1.2700000000000031,-26.67 " />
			<path d="M26.670000000000005,-26.67 L26.670000000000005,-13.97 " />
			<path d="M26.67,-13.969999999999999 L1.2700000000000031,-13.969999999999999 " />
			<path d="M1.2700000000000031,-26.67 L1.2700000000000031,-13.97 " />
			<path d="M51.308,-29.844999999999995 L51.30402405800797,-29.689367309768564 L51.29210660481058,-29.53414064745604 L51.2722787316825,-29.379724981700868 L51.24459216728081,-29.226523165344048 L51.20911914269082,-29.074934884432114 L51.165952202983426,-28.92535561548185 L51.1152039657756,-28.778175593727212 L51.057006827423855,-28.633778795040172 L50.991512617617296,-28.492541934181503 L50.91889220327128,-28.354833481994973 L50.83933504275514,-28.221012704109 L50.753048691616954,-28.09142872365364 L50.6602582610948,-27.966419610438198 L50.56120583082724,-27.846311498965708 L50.4561498172952,-27.731417737585243 L50.34536429964283,-27.62203807100185 L50.22913830463638,-27.518457858276843 L50.10777505262631,-27.420947328358594 L49.98159116648005,-27.329760875086052 L49.85091584554907,-27.245136393504286 L49.716090006825375,-27.167294659223444 L49.57746539552799,-27.096438752440417 L49.435403667439836,-27.03275352812578 L49.29027544538911,-26.97640513375829 L49.14245935233664,-26.927540575865088 L48.99234102359176,-26.886287336498423 L48.84031210073391,-26.85275304064958 L48.68676920986438,-26.827025175467536 L48.53211292685417,-26.809170862014977 L48.37674673228723,-26.799236680157126 L48.221075958825715,-26.79724854704018 L48.065506733743334,-26.803211649476438 L47.910444919385675,-26.817110430412505 L47.75629505432168,-26.838908629515856 L47.60345929794871,-26.868549377773917 L47.452336381304576,-26.90595534585882 L47.303320566823835,-26.951028945870785 L47.15680061975207,-27.003652585933814 L47.01315879390176,-27.063688976979467 L46.872769834395754,-27.130981490918376 L46.736000000000004,-27.205354569265022 L46.60320610759628,-27.286614181149808 L46.474734601287665,-27.37454832952342 L46.350920648565435,-27.46892760423294 L46.23208726589536,-27.56950578052673 L46.11854447600461,-27.6760204614267 L46.010588499067865,-27.788193762292064 L45.90850097990272,-27.90573303578864 L45.812548253190464,-28.028331635372325 L45.72298064863937,-28.15566971529493 L45.64003183790301,-28.287415065045202 L45.56391822495763,-28.42322397604812 L45.49483838152887,-28.56274213836133 L45.43297252904081,-28.70560556502933 L45.37848206843884,-28.851441541683865 L45.33150915911303,-28.999869598913175 L45.292176348020526,-29.15050250486323 L45.2605862499745,-29.302947275481444 L45.23682127993385,-29.456806199767183 L45.220943437991956,-29.611677877354357 L45.21299414762555,-29.767158265719154 L45.21299414762555,-29.92284173428084 L45.220943437991956,-30.078322122645634 L45.23682127993385,-30.23319380023281 L45.2605862499745,-30.387052724518547 L45.292176348020526,-30.53949749513676 L45.33150915911304,-30.69013040108682 L45.37848206843884,-30.838558458316125 L45.43297252904082,-30.98439443497066 L45.49483838152888,-31.12725786163866 L45.56391822495763,-31.266776023951873 L45.64003183790301,-31.402584934954792 L45.72298064863937,-31.53433028470506 L45.81254825319047,-31.661668364627666 L45.90850097990272,-31.784266964211355 L46.01058849906787,-31.90180623770793 L46.11854447600461,-32.013979538573295 L46.23208726589536,-32.12049421947326 L46.350920648565435,-32.22107239576705 L46.474734601287665,-32.31545167047657 L46.60320610759628,-32.40338581885018 L46.736000000000004,-32.484645430734965 L46.872769834395754,-32.55901850908162 L47.01315879390176,-32.62631102302052 L47.15680061975207,-32.68634741406618 L47.30332056682384,-32.73897105412921 L47.45233638130458,-32.78404465414117 L47.60345929794871,-32.821450622226074 L47.75629505432169,-32.851091370484134 L47.91044491938568,-32.872889569587485 L48.06550673374334,-32.88678835052355 L48.22107595882572,-32.89275145295981 L48.37674673228724,-32.89076331984286 L48.532112926854175,-32.88082913798501 L48.68676920986439,-32.86297482453245 L48.84031210073392,-32.83724695935041 L48.99234102359178,-32.803712663501564 L49.14245935233665,-32.7624594241349 L49.29027544538913,-32.71359486624169 L49.43540366743985,-32.65724647187421 L49.577465395528,-32.59356124755957 L49.71609000682539,-32.52270534077654 L49.85091584554908,-32.444863606495694 L49.98159116648006,-32.36023912491393 L50.10777505262632,-32.26905267164139 L50.22913830463639,-32.17154214172314 L50.34536429964284,-32.06796192899813 L50.456149817295206,-31.958582262414737 L50.561205830827255,-31.84368850103427 L50.66025826109481,-31.72358038956178 L50.75304869161696,-31.598571276346338 L50.839335042755145,-31.468987295890976 L50.918892203271284,-31.335166518005003 L50.9915126176173,-31.197458065818473 L51.05700682742386,-31.0562212049598 L51.115203965775606,-30.91182440627276 L51.16595220298343,-30.764644384518125 L51.209119142690824,-30.61506511556786 L51.244592167280814,-30.463476834655925 L51.272278731682505,-30.310275018299105 L51.292106604810584,-30.155859352543928 L51.30402405800797,-30.00063269023141 L51.308,-29.844999999999974 " />
			<path d="M-27.216099999999997,0.0 L-27.22009365511827,0.16141199645582782 L-27.23206484732979,0.3224289907082815 L-27.25198428112119,0.4826569471905697 L-27.279803210300045,0.6417037612435448 L-27.315453557285,0.7991802186615096 L-27.358848079703,0.9547009481645997 L-27.40988058388601,1.1078853644668827 L-27.468426184744697,1.2583585996323279 L-27.534341611383184,1.405752420439463 L-27.60746555770695,1.5497061295097727 L-27.68761907716584,1.689867447994626 L-27.774606020666308,1.8258933776606523 L-27.86821351658107,1.9574510402638916 L-27.968212491681676,2.0842184921586426 L-28.07435823171908,2.2058855121475087 L-28.186390980280418,2.322154360644656 L-28.304036574456457,2.432740508294469 L-28.427007115764212,2.537373332262564 L-28.55500167468274,2.6357967784952145 L-28.68770702707813,2.7277699883265267 L-28.824798420715446,2.813067887899957 L-28.96594036998184,2.8914817389617538 L-29.1107874768761,2.9628196496784436 L-29.258985276255412,3.026907044228305 L-29.410171103270965,3.0835870900176543 L-29.563974980869624,3.1327210814764856 L-29.72002052518976,3.174188779494244 L-29.877925866635643,3.2078887056650767 L-30.03730458437632,3.2337383906224972 L-30.19776665198215,3.251674575855745 L-30.35891939188484,3.26165336851396 L-30.520368436325242,3.2636503488193487 L-30.68171869243736,3.2576606298264648 L-30.842575309106785,3.2436988693813915 L-31.002544643237545,3.2217992342515296 L-31.161235223062725,3.1920153165137966 L-31.318258706141478,3.154420002405832 L-31.473230829698053,3.1091052939611603 L-31.625772350977197,3.0561820838647975 L-31.775509975314737,2.9957798840802714 L-31.92207726965216,2.928046508912139 L-32.06511555925972,2.8531477132796184 L-32.20427480547363,2.771266787086525 L-32.33921446229926,2.6826041066801616 L-32.46960430978433,2.5873766444968176 L-32.59512526212242,2.4858174380938634 L-32.71547014850944,2.3781750198677925 L-32.830344464842014,2.2647128088538038 L-32.93946709441843,2.145708466095278 L-33.042570995878265,2.021453215160679 L-33.139403856697385,1.8922511294706805 L-33.22972871063893,1.7584183881795499 L-33.313324517649434,1.6202825024317762 L-33.38998670478088,1.4781815138874195 L-33.45952766681495,1.3324631674775196 L-33.521777225364474,1.183484060413981 L-33.576583045328434,1.0316087695364367 L-33.62381100768147,0.8772089591316311 L-33.66334553768566,0.720662471408629 L-33.69508988772121,0.5623524018556151 L-33.71896637404415,0.4026661617410376 L-33.73491656689142,0.24199453005331611 L-33.74290143346833,0.08073069719917324 L-33.74290143346833,-0.08073069719917822 L-33.73491656689142,-0.24199453005332108 L-33.71896637404415,-0.4026661617410425 L-33.69508988772121,-0.56235240185562 L-33.66334553768566,-0.7206624714086339 L-33.62381100768147,-0.877208959131636 L-33.57658304532843,-1.0316087695364415 L-33.521777225364474,-1.1834840604139858 L-33.45952766681495,-1.3324631674775242 L-33.389986704780874,-1.4781815138874237 L-33.313324517649434,-1.6202825024317806 L-33.22972871063892,-1.7584183881795539 L-33.13940385669738,-1.8922511294706845 L-33.042570995878265,-2.021453215160683 L-32.939467094418426,-2.1457084660952814 L-32.830344464842014,-2.2647128088538073 L-32.71547014850943,-2.378175019867796 L-32.59512526212242,-2.485817438093866 L-32.46960430978432,-2.58737664449682 L-32.33921446229925,-2.682604106680164 L-32.204274805473624,-2.771266787086527 L-32.06511555925972,-2.85314771327962 L-31.922077269652156,-2.92804650891214 L-31.775509975314733,-2.9957798840802723 L-31.625772350977194,-3.0561820838647993 L-31.473230829698046,-3.1091052939611616 L-31.31825870614147,-3.1544200024058338 L-31.161235223062718,-3.1920153165137983 L-31.00254464323754,-3.221799234251531 L-30.842575309106778,-3.2436988693813924 L-30.681718692437354,-3.2576606298264656 L-30.520368436325235,-3.2636503488193487 L-30.35891939188483,-3.26165336851396 L-30.19776665198214,-3.2516745758557435 L-30.037304584376304,-3.233738390622496 L-29.87792586663563,-3.2078887056650744 L-29.72002052518975,-3.174188779494241 L-29.563974980869613,-3.1327210814764817 L-29.41017110327095,-3.0835870900176494 L-29.258985276255398,-3.0269070442282993 L-29.110787476876087,-2.9628196496784374 L-28.965940369981826,-2.8914817389617458 L-28.824798420715428,-2.813067887899948 L-28.687707027078115,-2.727769988326517 L-28.555001674682725,-2.6357967784952034 L-28.427007115764198,-2.5373733322625522 L-28.304036574456443,-2.432740508294456 L-28.186390980280404,-2.322154360644643 L-28.07435823171907,-2.2058855121474945 L-27.968212491681665,-2.084218492158627 L-27.868213516581058,-1.9574510402638754 L-27.774606020666297,-1.8258933776606352 L-27.68761907716583,-1.6898674479946083 L-27.607465557706938,-1.5497061295097538 L-27.534341611383176,-1.4057524204394432 L-27.468426184744686,-1.2583585996323075 L-27.409880583886004,-1.1078853644668614 L-27.358848079702994,-0.9547009481645776 L-27.315453557284993,-0.7991802186614869 L-27.279803210300038,-0.6417037612435216 L-27.25198428112118,-0.48265694719054575 L-27.232064847329788,-0.3224289907082571 L-27.22009365511827,-0.16141199645580295 L-27.216099999999997,2.529090495898574e-14 " />
			<path d="M-28.701999999999998,6.3119 L-28.70597048980803,6.430657302798826 L-28.717864226060797,6.548884206654578 L-28.737628088444946,6.66605268151462 L-28.765173806753314,6.781639424527146 L-28.80037835512112,6.895128197238754 L-28.843084501489308,7.006012131240693 L-28.893101509841127,7.113795991966229 L-28.950205992075468,7.217998390528429 L-29.014142905712347,7.318153933719798 L-29.08462669297454,7.413815302571315 L-29.16134255615793,7.504555250187539 L-29.24394786359448,7.589968509934958 L-29.332073679928445,7.669673605461156 L-29.425326413871204,7.743314554460807 L-29.52328957607552,7.810562458579065 L-29.625525639278074,7.871116972351462 L-29.731577992402418,7.924707644619658 L-29.8409729798949,7.971095126431969 L-29.95322201718534,8.01007224003389 L-30.067823772824333,8.041464904174235 L-30.184266407551192,8.06513291159427 L-30.30202986029235,8.08097055522736 L-30.420588170880354,8.088907100312392 L-30.539411829119643,8.088907100312392 L-30.657970139707643,8.08097055522736 L-30.775733592448802,8.06513291159427 L-30.892176227175664,8.041464904174235 L-31.006777982814654,8.010072240033889 L-31.119027020105097,7.971095126431969 L-31.228422007597576,7.924707644619657 L-31.33447436072192,7.871116972351461 L-31.436710423924474,7.8105624585790645 L-31.53467358612879,7.743314554460806 L-31.62792632007155,7.669673605461155 L-31.716052136405512,7.589968509934957 L-31.798657443842067,7.504555250187538 L-31.875373307025455,7.413815302571314 L-31.945857094287646,7.318153933719797 L-32.009794007924526,7.217998390528428 L-32.06689849015886,7.113795991966228 L-32.116915498510686,7.006012131240692 L-32.159621644878875,6.895128197238752 L-32.194826193246676,6.781639424527145 L-32.22237191155505,6.666052681514619 L-32.2421357739392,6.548884206654577 L-32.25402951019196,6.430657302798824 L-32.257999999999996,6.311899999999998 L-32.25402951019196,6.193142697201172 L-32.2421357739392,6.074915793345419 L-32.22237191155505,5.957747318485378 L-32.194826193246676,5.842160575472851 L-32.159621644878875,5.728671802761244 L-32.116915498510686,5.617787868759304 L-32.06689849015886,5.510004008033769 L-32.009794007924526,5.405801609471569 L-31.945857094287646,5.3056460662802 L-31.875373307025455,5.209984697428682 L-31.798657443842064,5.119244749812459 L-31.71605213640551,5.03383149006504 L-31.627926320071545,4.954126394538843 L-31.53467358612879,4.880485445539192 L-31.436710423924474,4.813237541420935 L-31.33447436072192,4.752683027648538 L-31.22842200759758,4.699092355380342 L-31.119027020105097,4.652704873568031 L-31.006777982814658,4.61372775996611 L-30.892176227175668,4.582335095825765 L-30.775733592448805,4.55866708840573 L-30.65797013970765,4.542829444772639 L-30.539411829119647,4.534892899687607 L-30.420588170880357,4.534892899687607 L-30.302029860292357,4.5428294447726385 L-30.1842664075512,4.558667088405727 L-30.06782377282434,4.582335095825761 L-29.95322201718535,4.613727759966107 L-29.840972979894907,4.652704873568027 L-29.73157799240243,4.699092355380337 L-29.625525639278084,4.752683027648532 L-29.52328957607553,4.813237541420928 L-29.425326413871215,4.880485445539184 L-29.332073679928456,4.954126394538834 L-29.243947863594492,5.0338314900650305 L-29.16134255615794,5.119244749812449 L-29.08462669297455,5.209984697428671 L-29.014142905712358,5.305646066280187 L-28.950205992075478,5.405801609471554 L-28.893101509841138,5.510004008033754 L-28.843084501489315,5.6177878687592875 L-28.800378355121126,5.728671802761227 L-28.76517380675332,5.842160575472833 L-28.73762808844495,5.9577473184853575 L-28.7178642260608,6.074915793345398 L-28.70597048980803,6.19314269720115 L-28.701999999999998,6.311899999999976 " />
			<path d="M-45.211999999999996,29.844999999999995 L-45.21597594199203,30.000632690231427 L-45.22789339518942,30.15585935254395 L-45.2477212683175,30.310275018299123 L-45.27540783271919,30.463476834655943 L-45.31088085730918,30.615065115567877 L-45.35404779701657,30.764644384518142 L-45.4047960342244,30.91182440627278 L-45.46299317257614,31.05622120495982 L-45.5284873823827,31.197458065818488 L-45.60110779672872,31.335166518005018 L-45.68066495724486,31.46898729589099 L-45.76695130838304,31.59857127634635 L-45.85974173890519,31.723580389561793 L-45.958794169172755,31.843688501034283 L-46.0638501827048,31.958582262414748 L-46.174635700357165,32.067961928998145 L-46.29086169536362,32.17154214172315 L-46.41222494737369,32.2690526716414 L-46.538408833519945,32.36023912491394 L-46.66908415445093,32.4448636064957 L-46.80390999317462,32.52270534077655 L-46.94253460447201,32.59356124755958 L-47.08459633256016,32.65724647187421 L-47.22972455461088,32.7135948662417 L-47.37754064766336,32.7624594241349 L-47.52765897640823,32.803712663501564 L-47.679687899266085,32.83724695935041 L-47.833230790135616,32.86297482453246 L-47.98788707314583,32.88082913798501 L-48.143253267712765,32.89076331984286 L-48.29892404117428,32.89275145295981 L-48.45449326625666,32.88678835052355 L-48.60955508061432,32.872889569587485 L-48.76370494567831,32.851091370484134 L-48.916540702051286,32.821450622226074 L-49.06766361869542,32.78404465414117 L-49.21667943317616,32.73897105412921 L-49.36319938024793,32.68634741406618 L-49.50684120609824,32.62631102302052 L-49.64723016560424,32.55901850908162 L-49.78399999999999,32.484645430734965 L-49.91679389240372,32.40338581885018 L-50.04526539871233,32.31545167047657 L-50.16907935143456,32.22107239576705 L-50.28791273410464,32.12049421947326 L-50.40145552399539,32.01397953857329 L-50.50941150093213,31.901806237707927 L-50.61149902009728,31.78426696421135 L-50.70745174680953,31.661668364627666 L-50.797019351360625,31.53433028470506 L-50.879968162096986,31.40258493495479 L-50.956081775042364,31.26677602395187 L-51.025161618471124,31.12725786163866 L-51.087027470959185,30.98439443497066 L-51.141517931561154,30.838558458316125 L-51.18849084088696,30.690130401086815 L-51.22782365197947,30.53949749513676 L-51.259413750025494,30.387052724518547 L-51.28317872006615,30.233193800232808 L-51.29905656200804,30.078322122645634 L-51.307005852374445,29.922841734280837 L-51.307005852374445,29.76715826571915 L-51.29905656200804,29.611677877354357 L-51.28317872006615,29.45680619976718 L-51.259413750025494,29.302947275481444 L-51.22782365197947,29.15050250486323 L-51.188490840886956,28.999869598913172 L-51.141517931561154,28.851441541683865 L-51.08702747095918,28.70560556502933 L-51.02516161847112,28.56274213836133 L-50.956081775042364,28.423223976048117 L-50.879968162096986,28.2874150650452 L-50.797019351360625,28.15566971529493 L-50.707451746809525,28.028331635372325 L-50.61149902009728,27.905733035788636 L-50.509411500932124,27.78819376229206 L-50.40145552399539,27.6760204614267 L-50.28791273410464,27.56950578052673 L-50.16907935143456,27.46892760423294 L-50.04526539871233,27.37454832952342 L-49.91679389240372,27.286614181149808 L-49.78399999999999,27.205354569265022 L-49.64723016560424,27.130981490918376 L-49.50684120609824,27.063688976979467 L-49.36319938024793,27.003652585933814 L-49.216679433176154,26.95102894587078 L-49.06766361869541,26.90595534585882 L-48.916540702051286,26.868549377773917 L-48.763704945678306,26.838908629515856 L-48.609555080614314,26.817110430412505 L-48.454493266256655,26.803211649476438 L-48.298924041174274,26.79724854704018 L-48.14325326771276,26.799236680157126 L-47.98788707314582,26.80917086201498 L-47.83323079013561,26.827025175467536 L-47.67968789926608,26.852753040649585 L-47.52765897640822,26.886287336498427 L-47.377540647663345,26.927540575865088 L-47.22972455461087,26.976405133758295 L-47.084596332560146,27.032753528125784 L-46.942534604471994,27.09643875244042 L-46.80390999317461,27.16729465922345 L-46.669084154450914,27.245136393504293 L-46.53840883351994,27.329760875086063 L-46.41222494737367,27.4209473283586 L-46.2908616953636,27.51845785827685 L-46.17463570035716,27.62203807100186 L-46.06385018270479,27.731417737585254 L-45.95879416917274,27.846311498965722 L-45.859741738905186,27.966419610438212 L-45.766951308383035,28.091428723653653 L-45.68066495724485,28.221012704109015 L-45.60110779672871,28.354833481994987 L-45.52848738238269,28.492541934181517 L-45.462993172576134,28.63377879504019 L-45.40479603422439,28.77817559372723 L-45.35404779701656,28.925355615481866 L-45.31088085730917,29.074934884432132 L-45.27540783271918,29.226523165344066 L-45.24772126831749,29.379724981700885 L-45.22789339518941,29.534140647456063 L-45.21597594199203,29.68936730976858 L-45.211999999999996,29.845000000000017 " />
			<path d="M51.308,29.844999999999995 L51.30402405800797,30.000632690231427 L51.29210660481058,30.15585935254395 L51.2722787316825,30.310275018299123 L51.24459216728081,30.463476834655943 L51.20911914269082,30.615065115567877 L51.165952202983426,30.764644384518142 L51.1152039657756,30.91182440627278 L51.057006827423855,31.05622120495982 L50.991512617617296,31.197458065818488 L50.91889220327128,31.335166518005018 L50.83933504275514,31.46898729589099 L50.753048691616954,31.59857127634635 L50.6602582610948,31.723580389561793 L50.56120583082724,31.843688501034283 L50.4561498172952,31.958582262414748 L50.34536429964283,32.067961928998145 L50.22913830463638,32.17154214172315 L50.10777505262631,32.2690526716414 L49.98159116648005,32.36023912491394 L49.85091584554907,32.4448636064957 L49.716090006825375,32.52270534077655 L49.57746539552799,32.59356124755958 L49.435403667439836,32.65724647187421 L49.29027544538911,32.7135948662417 L49.14245935233664,32.7624594241349 L48.99234102359176,32.803712663501564 L48.84031210073391,32.83724695935041 L48.68676920986438,32.86297482453246 L48.53211292685417,32.88082913798501 L48.37674673228723,32.89076331984286 L48.221075958825715,32.89275145295981 L48.065506733743334,32.88678835052355 L47.910444919385675,32.872889569587485 L47.75629505432168,32.851091370484134 L47.60345929794871,32.821450622226074 L47.452336381304576,32.78404465414117 L47.303320566823835,32.73897105412921 L47.15680061975207,32.68634741406618 L47.01315879390176,32.62631102302052 L46.872769834395754,32.55901850908162 L46.736000000000004,32.484645430734965 L46.60320610759628,32.40338581885018 L46.474734601287665,32.31545167047657 L46.350920648565435,32.22107239576705 L46.23208726589536,32.12049421947326 L46.11854447600461,32.01397953857329 L46.010588499067865,31.901806237707927 L45.90850097990272,31.78426696421135 L45.812548253190464,31.661668364627666 L45.72298064863937,31.53433028470506 L45.64003183790301,31.40258493495479 L45.56391822495763,31.26677602395187 L45.49483838152887,31.12725786163866 L45.43297252904081,30.98439443497066 L45.37848206843884,30.838558458316125 L45.33150915911303,30.690130401086815 L45.292176348020526,30.53949749513676 L45.2605862499745,30.387052724518547 L45.23682127993385,30.233193800232808 L45.220943437991956,30.078322122645634 L45.21299414762555,29.922841734280837 L45.21299414762555,29.76715826571915 L45.220943437991956,29.611677877354357 L45.23682127993385,29.45680619976718 L45.2605862499745,29.302947275481444 L45.292176348020526,29.15050250486323 L45.33150915911304,28.999869598913172 L45.37848206843884,28.851441541683865 L45.43297252904082,28.70560556502933 L45.49483838152888,28.56274213836133 L45.56391822495763,28.423223976048117 L45.64003183790301,28.2874150650452 L45.72298064863937,28.15566971529493 L45.81254825319047,28.028331635372325 L45.90850097990272,27.905733035788636 L46.01058849906787,27.78819376229206 L46.11854447600461,27.6760204614267 L46.23208726589536,27.56950578052673 L46.350920648565435,27.46892760423294 L46.474734601287665,27.37454832952342 L46.60320610759628,27.286614181149808 L46.736000000000004,27.205354569265022 L46.872769834395754,27.130981490918376 L47.01315879390176,27.063688976979467 L47.15680061975207,27.003652585933814 L47.30332056682384,26.95102894587078 L47.45233638130458,26.90595534585882 L47.60345929794871,26.868549377773917 L47.75629505432169,26.838908629515856 L47.91044491938568,26.817110430412505 L48.06550673374334,26.803211649476438 L48.22107595882572,26.79724854704018 L48.37674673228724,26.799236680157126 L48.532112926854175,26.80917086201498 L48.68676920986439,26.827025175467536 L48.84031210073392,26.852753040649585 L48.99234102359178,26.886287336498427 L49.14245935233665,26.927540575865088 L49.29027544538913,26.976405133758295 L49.43540366743985,27.032753528125784 L49.577465395528,27.09643875244042 L49.71609000682539,27.16729465922345 L49.85091584554908,27.245136393504293 L49.98159116648006,27.329760875086063 L50.10777505262632,27.4209473283586 L50.22913830463639,27.51845785827685 L50.34536429964284,27.62203807100186 L50.456149817295206,27.731417737585254 L50.561205830827255,27.846311498965722 L50.66025826109481,27.966419610438212 L50.75304869161696,28.091428723653653 L50.839335042755145,28.221012704109015 L50.918892203271284,28.354833481994987 L50.9915126176173,28.492541934181517 L51.05700682742386,28.63377879504019 L51.115203965775606,28.77817559372723 L51.16595220298343,28.925355615481866 L51.209119142690824,29.074934884432132 L51.244592167280814,29.226523165344066 L51.272278731682505,29.379724981700885 L51.292106604810584,29.534140647456063 L51.30402405800797,29.68936730976858 L51.308,29.845000000000017 " />
			<path d="M-46.5582,-29.844999999999995 L-46.56216728859154,-29.728865060936 L-46.57405065703537,-29.613271596568 L-46.59379469958222,-29.498758556987024 L-46.62130736039151,-29.38585985484497 L-46.65646036273819,-29.27510187600741 L-46.69908980709802,-29.167001025299662 L-46.748996935322836,-29.06206131878912 L-46.80594905734279,-28.960772033829695 L-46.869680636074825,-28.863605427824915 L-46.93989452547922,-28.77101453634592 L-47.016263355991484,-28.68343106087049 L-47.09843106087049,-28.601263355991485 L-47.18601453634592,-28.524894525479215 L-47.278605427824914,-28.454680636074826 L-47.3757720338297,-28.39094905734278 L-47.477061318789126,-28.333996935322833 L-47.58200102529966,-28.284089807098017 L-47.69010187600741,-28.241460362738188 L-47.80085985484497,-28.20630736039151 L-47.91375855698703,-28.17879469958222 L-48.028271596568004,-28.15905065703537 L-48.143865060936,-28.147167288591536 L-48.26,-28.143199999999997 L-48.376134939063995,-28.147167288591536 L-48.49172840343199,-28.15905065703537 L-48.60624144301297,-28.17879469958222 L-48.71914014515502,-28.20630736039151 L-48.82989812399258,-28.241460362738188 L-48.93799897470033,-28.284089807098013 L-49.04293868121087,-28.333996935322833 L-49.1442279661703,-28.39094905734278 L-49.24139457217508,-28.454680636074826 L-49.333985463654074,-28.524894525479212 L-49.42156893912951,-28.601263355991485 L-49.50373664400851,-28.68343106087049 L-49.58010547452078,-28.77101453634592 L-49.65031936392517,-28.863605427824915 L-49.71405094265722,-28.960772033829695 L-49.77100306467716,-29.062061318789123 L-49.82091019290198,-29.167001025299665 L-49.86353963726181,-29.275101876007415 L-49.898692639608484,-29.385859854844973 L-49.92620530041778,-29.498758556987028 L-49.945949342964624,-29.613271596568005 L-49.95783271140846,-29.728865060936002 L-49.9618,-29.845 L-49.95783271140846,-29.961134939063996 L-49.945949342964624,-30.076728403431993 L-49.92620530041778,-30.191241443012974 L-49.898692639608484,-30.304140145155024 L-49.8635396372618,-30.414898123992586 L-49.82091019290198,-30.522998974700336 L-49.77100306467716,-30.627938681210875 L-49.71405094265721,-30.729227966170303 L-49.65031936392516,-30.826394572175083 L-49.58010547452078,-30.918985463654078 L-49.503736644008505,-31.006568939129508 L-49.4215689391295,-31.088736644008513 L-49.33398546365407,-31.165105474520782 L-49.241394572175075,-31.23531936392517 L-49.14422796617029,-31.299050942657214 L-49.04293868121086,-31.35600306467716 L-48.93799897470032,-31.405910192901977 L-48.82989812399257,-31.448539637261806 L-48.71914014515501,-31.48369263960848 L-48.60624144301296,-31.511205300417775 L-48.49172840343198,-31.530949342964625 L-48.37613493906398,-31.542832711408455 L-48.259999999999984,-31.546799999999994 L-48.14386506093599,-31.542832711408455 L-48.02827159656799,-31.53094934296462 L-47.91375855698701,-31.51120530041777 L-47.80085985484496,-31.483692639608478 L-47.690101876007404,-31.4485396372618 L-47.582001025299654,-31.40591019290197 L-47.47706131878911,-31.35600306467715 L-47.37577203382968,-31.299050942657203 L-47.27860542782491,-31.235319363925157 L-47.18601453634591,-31.165105474520768 L-47.09843106087048,-31.088736644008495 L-47.01626335599148,-31.00656893912949 L-46.939894525479204,-30.91898546365406 L-46.86968063607482,-30.82639457217506 L-46.80594905734277,-30.72922796617028 L-46.74899693532283,-30.627938681210853 L-46.69908980709801,-30.522998974700315 L-46.65646036273819,-30.414898123992565 L-46.62130736039151,-30.304140145155003 L-46.59379469958222,-30.19124144301295 L-46.574050657035365,-30.076728403431968 L-46.56216728859154,-29.961134939063975 L-46.5582,-29.844999999999978 " />
			<path d="M49.9618,-29.844999999999995 L49.95783271140846,-29.728865060936 L49.945949342964624,-29.613271596568 L49.92620530041778,-29.498758556987024 L49.898692639608484,-29.38585985484497 L49.86353963726181,-29.27510187600741 L49.82091019290198,-29.167001025299662 L49.77100306467716,-29.06206131878912 L49.71405094265721,-28.960772033829695 L49.65031936392517,-28.863605427824915 L49.58010547452078,-28.77101453634592 L49.50373664400851,-28.68343106087049 L49.42156893912951,-28.601263355991485 L49.333985463654074,-28.524894525479215 L49.24139457217508,-28.454680636074826 L49.1442279661703,-28.39094905734278 L49.04293868121087,-28.333996935322833 L48.937998974700335,-28.284089807098017 L48.829898123992585,-28.241460362738188 L48.71914014515502,-28.20630736039151 L48.60624144301297,-28.17879469958222 L48.49172840343199,-28.15905065703537 L48.376134939063995,-28.147167288591536 L48.26,-28.143199999999997 L48.143865060936,-28.147167288591536 L48.028271596568004,-28.15905065703537 L47.91375855698703,-28.17879469958222 L47.80085985484497,-28.20630736039151 L47.69010187600742,-28.241460362738188 L47.58200102529967,-28.284089807098013 L47.477061318789126,-28.333996935322833 L47.3757720338297,-28.39094905734278 L47.278605427824914,-28.454680636074826 L47.18601453634592,-28.524894525479212 L47.09843106087049,-28.601263355991485 L47.016263355991484,-28.68343106087049 L46.93989452547922,-28.77101453634592 L46.869680636074825,-28.863605427824915 L46.80594905734278,-28.960772033829695 L46.748996935322836,-29.062061318789123 L46.69908980709802,-29.167001025299665 L46.65646036273819,-29.275101876007415 L46.62130736039151,-29.385859854844973 L46.59379469958222,-29.498758556987028 L46.57405065703537,-29.613271596568005 L46.56216728859154,-29.728865060936002 L46.5582,-29.845 L46.56216728859154,-29.961134939063996 L46.57405065703537,-30.076728403431993 L46.59379469958222,-30.191241443012974 L46.62130736039151,-30.304140145155024 L46.656460362738194,-30.414898123992586 L46.69908980709802,-30.522998974700336 L46.748996935322836,-30.627938681210875 L46.80594905734279,-30.729227966170303 L46.86968063607483,-30.826394572175083 L46.93989452547922,-30.918985463654078 L47.01626335599149,-31.006568939129508 L47.098431060870496,-31.088736644008513 L47.18601453634593,-31.165105474520782 L47.27860542782492,-31.23531936392517 L47.375772033829705,-31.299050942657214 L47.47706131878913,-31.35600306467716 L47.582001025299675,-31.405910192901977 L47.690101876007425,-31.448539637261806 L47.80085985484499,-31.48369263960848 L47.913758556987034,-31.511205300417775 L48.02827159656802,-31.530949342964625 L48.143865060936015,-31.542832711408455 L48.26000000000001,-31.546799999999994 L48.37613493906401,-31.542832711408455 L48.491728403432006,-31.53094934296462 L48.60624144301298,-31.51120530041777 L48.71914014515504,-31.483692639608478 L48.82989812399259,-31.4485396372618 L48.93799897470034,-31.40591019290197 L49.042938681210885,-31.35600306467715 L49.14422796617031,-31.299050942657203 L49.24139457217509,-31.235319363925157 L49.33398546365409,-31.165105474520768 L49.421568939129514,-31.088736644008495 L49.50373664400852,-31.00656893912949 L49.58010547452079,-30.91898546365406 L49.65031936392518,-30.82639457217506 L49.714050942657224,-30.72922796617028 L49.77100306467717,-30.627938681210853 L49.820910192901984,-30.522998974700315 L49.86353963726181,-30.414898123992565 L49.898692639608484,-30.304140145155003 L49.92620530041778,-30.19124144301295 L49.94594934296463,-30.076728403431968 L49.95783271140846,-29.961134939063975 L49.9618,-29.844999999999978 " />
			<path d="M-46.5582,29.844999999999995 L-46.56216728859154,29.961134939063992 L-46.57405065703537,30.07672840343199 L-46.59379469958222,30.191241443012967 L-46.62130736039151,30.30414014515502 L-46.65646036273819,30.41489812399258 L-46.69908980709802,30.52299897470033 L-46.748996935322836,30.62793868121087 L-46.80594905734279,30.729227966170296 L-46.869680636074825,30.826394572175076 L-46.93989452547922,30.91898546365407 L-47.016263355991484,31.0065689391295 L-47.09843106087049,31.088736644008506 L-47.18601453634592,31.165105474520775 L-47.278605427824914,31.235319363925164 L-47.3757720338297,31.29905094265721 L-47.477061318789126,31.356003064677157 L-47.58200102529966,31.405910192901974 L-47.69010187600741,31.448539637261803 L-47.80085985484497,31.48369263960848 L-47.91375855698703,31.51120530041777 L-48.028271596568004,31.53094934296462 L-48.143865060936,31.542832711408455 L-48.26,31.546799999999994 L-48.376134939063995,31.542832711408455 L-48.49172840343199,31.53094934296462 L-48.60624144301297,31.51120530041777 L-48.71914014515502,31.48369263960848 L-48.82989812399258,31.448539637261803 L-48.93799897470033,31.405910192901977 L-49.04293868121087,31.356003064677157 L-49.1442279661703,31.29905094265721 L-49.24139457217508,31.235319363925164 L-49.333985463654074,31.16510547452078 L-49.42156893912951,31.088736644008506 L-49.50373664400851,31.0065689391295 L-49.58010547452078,30.91898546365407 L-49.65031936392517,30.826394572175076 L-49.71405094265722,30.729227966170296 L-49.77100306467716,30.627938681210868 L-49.82091019290198,30.522998974700325 L-49.86353963726181,30.414898123992575 L-49.898692639608484,30.304140145155017 L-49.92620530041778,30.191241443012963 L-49.945949342964624,30.076728403431986 L-49.95783271140846,29.96113493906399 L-49.9618,29.84499999999999 L-49.95783271140846,29.728865060935995 L-49.945949342964624,29.613271596567998 L-49.92620530041778,29.498758556987017 L-49.898692639608484,29.385859854844966 L-49.8635396372618,29.275101876007405 L-49.82091019290198,29.167001025299655 L-49.77100306467716,29.062061318789116 L-49.71405094265721,28.960772033829688 L-49.65031936392516,28.863605427824908 L-49.58010547452078,28.771014536345913 L-49.503736644008505,28.683431060870483 L-49.4215689391295,28.601263355991478 L-49.33398546365407,28.52489452547921 L-49.241394572175075,28.45468063607482 L-49.14422796617029,28.390949057342777 L-49.04293868121086,28.33399693532283 L-48.93799897470032,28.284089807098013 L-48.82989812399257,28.241460362738184 L-48.71914014515501,28.20630736039151 L-48.60624144301296,28.178794699582216 L-48.49172840343198,28.159050657035365 L-48.37613493906398,28.147167288591536 L-48.259999999999984,28.143199999999997 L-48.14386506093599,28.147167288591536 L-48.02827159656799,28.15905065703537 L-47.91375855698701,28.17879469958222 L-47.80085985484496,28.206307360391513 L-47.690101876007404,28.24146036273819 L-47.582001025299654,28.28408980709802 L-47.47706131878911,28.33399693532284 L-47.37577203382968,28.390949057342787 L-47.27860542782491,28.454680636074833 L-47.18601453634591,28.524894525479223 L-47.09843106087048,28.601263355991495 L-47.01626335599148,28.6834310608705 L-46.939894525479204,28.77101453634593 L-46.86968063607482,28.86360542782493 L-46.80594905734277,28.96077203382971 L-46.74899693532283,29.062061318789137 L-46.69908980709801,29.167001025299676 L-46.65646036273819,29.275101876007426 L-46.62130736039151,29.385859854844988 L-46.59379469958222,29.498758556987042 L-46.574050657035365,29.613271596568023 L-46.56216728859154,29.728865060936016 L-46.5582,29.845000000000013 " />
			<path d="M49.9618,29.844999999999995 L49.95783271140846,29.961134939063992 L49.945949342964624,30.07672840343199 L49.92620530041778,30.191241443012967 L49.898692639608484,30.30414014515502 L49.86353963726181,30.41489812399258 L49.82091019290198,30.52299897470033 L49.77100306467716,30.62793868121087 L49.71405094265721,30.729227966170296 L49.65031936392517,30.826394572175076 L49.58010547452078,30.91898546365407 L49.50373664400851,31.0065689391295 L49.42156893912951,31.088736644008506 L49.333985463654074,31.165105474520775 L49.24139457217508,31.235319363925164 L49.1442279661703,31.29905094265721 L49.04293868121087,31.356003064677157 L48.937998974700335,31.405910192901974 L48.829898123992585,31.448539637261803 L48.71914014515502,31.48369263960848 L48.60624144301297,31.51120530041777 L48.49172840343199,31.53094934296462 L48.376134939063995,31.542832711408455 L48.26,31.546799999999994 L48.143865060936,31.542832711408455 L48.028271596568004,31.53094934296462 L47.91375855698703,31.51120530041777 L47.80085985484497,31.48369263960848 L47.69010187600742,31.448539637261803 L47.58200102529967,31.405910192901977 L47.477061318789126,31.356003064677157 L47.3757720338297,31.29905094265721 L47.278605427824914,31.235319363925164 L47.18601453634592,31.16510547452078 L47.09843106087049,31.088736644008506 L47.016263355991484,31.0065689391295 L46.93989452547922,30.91898546365407 L46.869680636074825,30.826394572175076 L46.80594905734278,30.729227966170296 L46.748996935322836,30.627938681210868 L46.69908980709802,30.522998974700325 L46.65646036273819,30.414898123992575 L46.62130736039151,30.304140145155017 L46.59379469958222,30.191241443012963 L46.57405065703537,30.076728403431986 L46.56216728859154,29.96113493906399 L46.5582,29.84499999999999 L46.56216728859154,29.728865060935995 L46.57405065703537,29.613271596567998 L46.59379469958222,29.498758556987017 L46.62130736039151,29.385859854844966 L46.656460362738194,29.275101876007405 L46.69908980709802,29.167001025299655 L46.748996935322836,29.062061318789116 L46.80594905734279,28.960772033829688 L46.86968063607483,28.863605427824908 L46.93989452547922,28.771014536345913 L47.01626335599149,28.683431060870483 L47.098431060870496,28.601263355991478 L47.18601453634593,28.52489452547921 L47.27860542782492,28.45468063607482 L47.375772033829705,28.390949057342777 L47.47706131878913,28.33399693532283 L47.582001025299675,28.284089807098013 L47.690101876007425,28.241460362738184 L47.80085985484499,28.20630736039151 L47.913758556987034,28.178794699582216 L48.02827159656802,28.159050657035365 L48.143865060936015,28.147167288591536 L48.26000000000001,28.143199999999997 L48.37613493906401,28.147167288591536 L48.491728403432006,28.15905065703537 L48.60624144301298,28.17879469958222 L48.71914014515504,28.206307360391513 L48.82989812399259,28.24146036273819 L48.93799897470034,28.28408980709802 L49.042938681210885,28.33399693532284 L49.14422796617031,28.390949057342787 L49.24139457217509,28.454680636074833 L49.33398546365409,28.524894525479223 L49.421568939129514,28.601263355991495 L49.50373664400852,28.6834310608705 L49.58010547452079,28.77101453634593 L49.65031936392518,28.86360542782493 L49.714050942657224,28.96077203382971 L49.77100306467717,29.062061318789137 L49.820910192901984,29.167001025299676 L49.86353963726181,29.275101876007426 L49.898692639608484,29.385859854844988 L49.92620530041778,29.498758556987042 L49.94594934296463,29.613271596568023 L49.95783271140846,29.728865060936016 L49.9618,29.845000000000013 " />

       </g>
    </g>
    
</svg>
